<?xml version="1.0" encoding="utf-8"?>
<!-- Generator: Adobe Illustrator 27.9.0, SVG Export Plug-In . SVG Version: 6.00 Build 0)  -->
<svg version="1.1" id="Biblio_Nexus_ALL_Artboards" xmlns="http://www.w3.org/2000/svg" xmlns:xlink="http://www.w3.org/1999/xlink"
	 x="0px" y="0px" viewBox="0 0 1296.5 465.9" style="enable-background:new 0 0 1296.5 465.9;" xml:space="preserve">
<style type="text/css">
	.st0{fill:#FFFFFF;}
	.st1{fill:#14A2DC;}
</style>
<g>
	<path class="st0" d="M81.6,267.9c0-12.9,1.1-22.8,3.3-29.7c2.2-6.9,10.3-15.4,24.2-25.6v57.5c29.8,0.4,58.8,0.7,86.9,0.8v-65.8
		c0-47.2-1.5-78.4-4.5-93.5c-3-15.1-12-27.9-26.9-38.3c-14.9-10.4-37.1-15.6-66.5-15.6c-24.5,0-44.5,4.6-59.8,13.8
		S12.7,91.2,7.6,103.2c-5.1,12-7.6,29-7.6,51.1v19.1h81.6v-29.9c0-15.9,0.7-25.8,2.1-29.6c1.4-3.8,5.1-5.7,11-5.7
		c5.2,0,8.9,2.3,11.1,6.8s3.3,14.2,3.3,29.2c0,11.9-1,19.8-3,23.7c-2,3.9-17.3,11.4-45.8,22.6c-26.7,10.3-43.4,19.4-50.1,27.1
		C3.4,225.3,0,239.9,0,261.3v6.5c27.8,0.8,55,1.4,81.6,1.9C81.6,269.1,81.6,268.5,81.6,267.9L81.6,267.9z"/>
	<path class="st0" d="M310.3,267.7V140.5c0-13.8,0.9-22.6,2.6-26.5s5-5.8,9.9-5.8s8.5,2.2,10.4,6.7c1.9,4.4,2.9,13,2.9,25.6V269
		c0,0.4,0,0.7,0,1c30-0.5,59-1.2,86.9-2V62.8h-85.4l-1.5,24.4c-7.6-9.9-16-17.3-25.2-22.2c-9.2-4.9-19.2-7.3-30.1-7.3
		c-13.5,0-25.1,3.6-35,10.6c-9.8,7.1-16,15.4-18.6,25c-2.6,9.5-3.9,24-3.9,43.4v125.9c0,2.9,0,5.7,0.1,8.4c29.9,0,58.8-0.2,86.9-0.5
		C310.4,269.5,310.4,268.6,310.3,267.7L310.3,267.7z"/>
	<path class="st0" d="M540,257.2V62.8h-87v192.6c0,4.1,0,8,0,11.6c30.1-1,59.1-2.2,86.9-3.6C540,261.5,540,259.4,540,257.2
		L540,257.2z"/>
	<path class="st0" d="M653.4,62.8h-87V255c0,2.5,0,4.9,0,7.1c30.3-1.6,59.2-3.4,87-5.2L653.4,62.8L653.4,62.8z"/>
	<rect x="684.6" class="st0" width="89.5" height="45.4"/>
	<path class="st0" d="M774.1,62.8h-89.5v191.9c31.5-2.3,61.3-4.7,89.5-7.1V62.8z"/>
	<path class="st0" d="M895.5,114.9h20.7V69.7h-36.6v-9c0-7.8,1.6-12.4,4.8-14.1c3.2-1.6,13.8-2.5,31.7-2.5V0h-31.8
		c-19.4,0-33.7,1.3-42.8,3.9s-16.3,6.3-21.4,11.3c-5.1,5-8.3,10.6-9.6,16.9c-1.3,6.3-1.9,18.9-1.9,37.7h-17.9v45.2h17.9v129.7
		c30.8-2.8,59.8-5.6,87-8.2L895.5,114.9L895.5,114.9z"/>
	<path class="st0" d="M1017.1,210.7h112.6v-37.9c0-27.7-3.2-49.2-9.6-64.5s-17.5-27.6-33.4-36.8s-36-13.9-60.4-13.9
		c-19.9,0-37.6,3.8-52.9,11.5c-15.3,7.7-26.4,18.7-33.1,33.1s-10.1,34.1-10.1,59.1V233c31.3-3.1,60.1-5.9,86.9-8.2V210.7
		L1017.1,210.7z M1017.1,143.3c0-16.1,0.7-25.9,2.2-29.6c1.4-3.7,5.2-5.5,11.2-5.5c4.9,0,8.1,2.1,9.7,6.5c1.6,4.3,2.4,13.9,2.4,28.6
		v20.9h-25.4L1017.1,143.3L1017.1,143.3z"/>
	<path class="st0" d="M1247.6,182.6c1.7-7.7,6.3-13.7,13.8-18s19.2-6.5,35.1-6.5V57.7c-24,1.6-42.2,15.8-54.9,42.7l3.4-37.6h-86.9
		v156c31.7,1,60.2,4.3,87,10.8C1245.1,205.4,1246,189.7,1247.6,182.6L1247.6,182.6z"/>
</g>
<g>
	<path class="st1" d="M19,340.8c12.7,8.5,26.6,12.8,41.9,12.8c11.6,0,21.6-2.5,30-7.6s15.2-12.8,20.6-23v25.5h84.6v-77.5
		c-28.2-0.1-57.2-0.4-86.9-0.8v1.3c0,14.4-0.8,23.2-2.5,26.6S101.4,303,96,303c-5.7,0-9.6-2.1-11.5-6.5c-1.9-4.1-2.8-13.1-2.9-26.9
		c-26.6-0.5-53.7-1.1-81.6-1.9v17C0,313.6,6.3,332.3,19,340.8L19,340.8z"/>
	<path class="st1" d="M248.7,342.8c10,7.2,22.6,10.8,37.8,10.8c10.5,0,19.3-1.6,26.4-4.9c7.1-3.2,14.9-11,23.4-23.4v140.3
		c28.8,0.6,57.8-0.3,86.9-1.4V268.1c-28,0.8-57,1.5-87,2c0,13.6-0.9,22.5-2.6,26.6c-1.7,4.2-5.1,6.4-10.1,6.4c-5.3,0-8.8-2-10.5-6.1
		c-1.6-3.9-2.5-12.7-2.6-26.5c-28.1,0.4-57,0.5-86.9,0.5c0.4,19.3,2.1,34,5.1,44C232,326.4,238.7,335.7,248.7,342.8L248.7,342.8z"/>
	<path class="st1" d="M462.2,328.4c4.1,7.6,10.4,13.7,19,18.3s19.4,6.9,32.5,6.9c11.5,0,21.6-2.4,30.5-7.2s16.2-12,22.3-21.7
		l-1.5,23.7h88.5V257c-27.7,1.9-56.7,3.6-87,5.2c-0.1,19.1-0.7,30.5-1.8,34.4c-1.2,4.3-5.1,6.5-11.5,6.5c-6,0-9.7-2.1-11.1-6.2
		c-1.2-3.8-1.9-14.9-2-33.3c-27.9,1.4-56.8,2.6-86.9,3.6c0.1,18.1,0.6,30.7,1.5,37.5C455.5,312.9,458.1,320.8,462.2,328.4
		L462.2,328.4z"/>
	<path class="st1" d="M774.1,348.4V247.7c-28.3,2.4-58.1,4.8-89.5,7.1v93.6H774.1z"/>
	<path class="st1" d="M895.5,348.4v-112c-27.2,2.7-56.1,5.4-87,8.2v103.8H895.5z"/>
	<path class="st1" d="M934.7,293.2c3,11.1,8.4,21.3,16.2,30.6s18.8,16.5,32.8,21.8c14.1,5.3,30.3,8,48.6,8s34.7-2.7,47.2-8.1
		c12.6-5.4,22.9-13.5,31.1-24.2c8.2-10.8,13.4-20.9,15.6-30.4s3.3-23,3.3-40.7v-21.1h-82.4v37.7c0,14.2-1.1,23.8-3.3,28.7
		c-2.2,5-6.6,7.4-13.2,7.4c-5.3,0-8.9-1.9-10.8-5.6c-1.9-3.7-2.8-12-2.8-25v-47.6c-26.8,2.3-55.7,5.1-86.9,8.2v11.7
		C930.2,265.9,931.7,282.1,934.7,293.2L934.7,293.2z"/>
	<path class="st1" d="M1245,348.4V235.7c0-2.1,0-4.1,0-6c-26.8-6.5-55.3-9.8-87-10.8v129.6L1245,348.4L1245,348.4z"/>
</g>
</svg>
