<?xml version="1.0" encoding="utf-8"?>
<!-- Generator: Adobe Illustrator 27.9.0, SVG Export Plug-In . SVG Version: 6.00 Build 0)  -->
<svg version="1.1" id="Biblio_Nexus_ALL_Artboards" xmlns="http://www.w3.org/2000/svg" xmlns:xlink="http://www.w3.org/1999/xlink"
	 x="0px" y="0px" viewBox="0 0 1350 485.1" style="enable-background:new 0 0 1350 485.1;" xml:space="preserve">
<style type="text/css">
	.st0{fill:#14A2DC;}
</style>
<path d="M84.9,279c0-13.5,1.2-23.7,3.5-30.9c2.3-7.2,10.7-16.1,25.2-26.7v59.8c31,0.5,61.2,0.7,90.5,0.8v-68.5
	c0-49.1-1.6-81.6-4.7-97.4c-3.1-15.8-12.5-29.1-28-39.9c-15.5-10.8-38.6-16.2-69.2-16.2c-25.6,0-46.3,4.8-62.3,14.3
	C23.9,84,13.3,95,8,107.5c-5.3,12.5-8,30.2-8,53.2v19.9h84.9v-31.1c0-16.6,0.8-26.9,2.2-30.8c1.5-4,5.3-5.9,11.4-5.9
	c5.4,0,9.2,2.4,11.5,7.1c2.3,4.7,3.5,14.8,3.5,30.4c0,12.4-1.1,20.6-3.1,24.6s-18,11.9-47.7,23.5c-27.8,10.8-45.2,20.2-52.2,28.2
	C3.5,234.6,0,249.8,0,272v6.7c29,0.8,57.3,1.5,84.9,2C84.9,280.2,84.9,279.6,84.9,279L84.9,279z"/>
<path class="st0" d="M19.9,354.9c13.2,8.9,27.8,13.3,43.6,13.3c12.1,0,22.5-2.7,31.3-8c8.7-5.3,15.9-13.3,21.4-23.9v26.5h88.1v-80.7
	c-29.4-0.1-59.5-0.4-90.5-0.8v1.3c0,14.9-0.9,24.2-2.6,27.7c-1.7,3.5-5.4,5.3-11.1,5.3c-6,0-10-2.2-12-6.7c-1.9-4.3-2.9-13.7-3-28
	c-27.6-0.5-55.9-1.2-84.9-2v17.7C0,326.5,6.6,346,19.9,354.9L19.9,354.9z"/>
<path d="M323.2,278.8V146.3c0-14.3,0.9-23.5,2.7-27.6c1.8-4,5.2-6.1,10.3-6.1c5.1,0,8.9,2.3,10.9,6.9c2,4.6,3,13.5,3,26.7v133.8
	c0,0.4,0,0.7,0,1.1c31.2-0.5,61.4-1.2,90.5-2.1V65.4h-89l-1.6,25.4c-7.9-10.3-16.7-18-26.2-23.1s-20-7.6-31.4-7.6
	c-14,0-26.2,3.7-36.4,11.1c-10.2,7.4-16.7,16.1-19.4,26c-2.7,9.9-4,25-4,45.2v131.1c0,3,0,5.9,0.1,8.7c31.1,0,61.2-0.2,90.5-0.6
	C323.2,280.7,323.2,279.7,323.2,278.8L323.2,278.8z"/>
<path class="st0" d="M259,357c10.4,7.5,23.5,11.2,39.3,11.2c10.9,0,20.1-1.7,27.5-5c7.4-3.4,15.5-11.5,24.3-24.4v146.1
	c30,0.6,60.2-0.3,90.5-1.4V279.1c-29.2,0.9-59.3,1.6-90.5,2.1c0,14.2-0.9,23.4-2.7,27.7c-1.8,4.4-5.3,6.6-10.5,6.6
	c-5.5,0-9.2-2.1-11-6.4c-1.7-4-2.6-13.2-2.7-27.6c-29.2,0.4-59.4,0.6-90.5,0.6c0.4,20.1,2.1,35.4,5.3,45.8
	C241.6,339.9,248.6,349.5,259,357L259,357z"/>
<path d="M562.3,267.8V65.4h-90.5V266c0,4.3,0,8.3,0,12.1c31.3-1.1,61.5-2.3,90.5-3.7C562.3,272.3,562.3,270.1,562.3,267.8
	L562.3,267.8z"/>
<path d="M680.4,65.4h-90.5v200.1c0,2.6,0,5.1,0,7.4c31.5-1.7,61.7-3.5,90.6-5.4V65.4z"/>
<path class="st0" d="M481.3,342c4.3,7.9,10.9,14.3,19.8,19c9,4.8,20.2,7.2,33.8,7.2c12,0,22.5-2.5,31.7-7.5
	c9.2-5,16.9-12.5,23.2-22.6l-1.6,24.7h92.1v-95.2c-28.9,1.9-59,3.8-90.6,5.4c-0.1,19.9-0.8,31.8-1.9,35.8c-1.3,4.5-5.3,6.7-12,6.7
	c-6.3,0-10.1-2.2-11.5-6.5c-1.3-3.9-2-15.5-2.1-34.7c-29,1.4-59.2,2.7-90.5,3.7c0.2,18.9,0.7,31.9,1.5,39.1
	C474.4,325.8,477,334.1,481.3,342L481.3,342z"/>
<rect x="712.9" y="0" width="93.2" height="47.3"/>
<path d="M806.1,65.4h-93.2v199.9c32.8-2.4,63.8-4.9,93.2-7.4V65.4L806.1,65.4z"/>
<path class="st0" d="M806.1,362.8V257.9c-29.4,2.5-60.5,5-93.2,7.4v97.5L806.1,362.8L806.1,362.8z"/>
<path d="M932.5,119.7H954V72.6h-38.1v-9.4c0-8.1,1.7-13,5-14.7s14.4-2.6,33.1-2.6V0h-33.2c-20.2,0-35,1.3-44.6,4s-17,6.6-22.3,11.8
	c-5.3,5.2-8.6,11-10,17.6c-1.3,6.6-2,19.6-2,39.2h-18.6v47.1H842v135.1c32.1-2.9,62.2-5.8,90.5-8.6L932.5,119.7L932.5,119.7z"/>
<path class="st0" d="M932.5,362.8V246.2c-28.3,2.8-58.4,5.7-90.5,8.6v108.1H932.5z"/>
<path d="M1059.1,219.4h117.2V180c0-28.8-3.3-51.2-10-67.1c-6.7-15.9-18.2-28.7-34.7-38.3c-16.5-9.6-37.5-14.4-62.9-14.4
	c-20.8,0-39.1,4-55.1,12s-27.5,19.5-34.5,34.5c-7,15-10.5,35.5-10.5,61.5v74.6c32.6-3.2,62.6-6.1,90.5-8.5L1059.1,219.4
	L1059.1,219.4z M1059.1,149.3c0-16.7,0.8-27,2.2-30.8s5.4-5.7,11.7-5.7c5.1,0,8.4,2.2,10.1,6.7c1.6,4.5,2.5,14.4,2.5,29.8V171h-26.4
	V149.3z"/>
<path class="st0" d="M973.3,305.3c3.1,11.6,8.8,22.2,16.9,31.8c8.1,9.6,19.5,17.2,34.2,22.8c14.6,5.5,31.5,8.3,50.7,8.3
	s36.1-2.8,49.2-8.4c13.1-5.6,23.9-14,32.4-25.2c8.5-11.2,13.9-21.7,16.2-31.6s3.5-24,3.5-42.4v-22h-85.8v39.2
	c0,14.8-1.2,24.8-3.5,29.9c-2.3,5.1-6.9,7.7-13.8,7.7c-5.5,0-9.3-1.9-11.2-5.8c-1.9-3.9-2.9-12.5-2.9-26v-49.6
	c-27.9,2.4-58,5.3-90.5,8.5v12.2C968.6,276.9,970.2,293.8,973.3,305.3L973.3,305.3z"/>
<path d="M1299.2,190.2c1.8-8,6.6-14.2,14.3-18.7c7.8-4.5,19.9-6.7,36.5-6.7V60.1c-24.9,1.6-44,16.5-57.2,44.5l3.6-39.1h-90.5v162.4
	c33,1,62.6,4.5,90.6,11.2C1296.6,213.9,1297.5,197.5,1299.2,190.2z"/>
<path class="st0" d="M1296.5,362.8V245.4c0-2.2,0-4.3,0-6.3c-27.9-6.8-57.6-10.2-90.6-11.2v135H1296.5L1296.5,362.8z"/>
</svg>
